<svg width="100" height="100" viewBox="0 0 100 100" fill="none" xmlns="http://www.w3.org/2000/svg">
<path d="M64.9589 49.558L48.9104 26.2856H60.5531L70.7803 41.1163L81.0074 26.2856H92.6501L76.6016 49.558L93.294 73.7641H81.6515L70.7803 57.9996L59.9091 73.7641H48.2664L64.9589 49.558Z" fill="#EBF4F9"/>
<path d="M29.506 35.7243C33.1154 35.3369 36.7447 36.2576 39.699 38.31C41.6907 39.6936 43.281 41.5261 44.3489 43.6288H54.6541C53.1643 38.4075 49.8766 33.8254 45.3216 30.661C40.4299 27.2628 34.4208 25.7384 28.4449 26.3797C22.469 27.0211 16.9467 29.7832 12.9353 34.1369C8.92409 38.4907 6.70605 44.13 6.70605 49.9746C6.70605 55.8195 8.92409 61.4589 12.9353 65.8126C16.9467 70.1663 22.469 72.9282 28.4449 73.5697C34.4208 74.2111 40.4299 72.6866 45.3216 69.2885C49.8811 66.121 53.1705 61.533 54.6584 56.3054H44.3565C43.2887 58.4145 41.6954 60.2526 39.699 61.6394C36.7447 63.6919 33.1154 64.6124 29.506 64.2251C25.8968 63.8378 22.5616 62.1696 20.139 59.5401C17.7163 56.9106 16.3766 53.5047 16.3766 49.9746C16.3766 46.4447 17.7163 43.0388 20.139 40.4093C22.5616 37.7798 25.8968 36.1117 29.506 35.7243Z" fill="#EBF4F9"/>
</svg>
